<?xml version="1.0" encoding="iso-8859-1"?>
<!-- Generator: Adobe Illustrator 16.0.0, SVG Export Plug-In . SVG Version: 6.00 Build 0)  -->
<!DOCTYPE svg PUBLIC "-//W3C//DTD SVG 1.1//EN" "http://www.w3.org/Graphics/SVG/1.1/DTD/svg11.dtd">
<svg version="1.1" id="Capa_1" xmlns="http://www.w3.org/2000/svg" xmlns:xlink="http://www.w3.org/1999/xlink" x="0px" y="0px"
	 width="975.263px" height="975.264px" viewBox="0 0 975.263 975.264" style="enable-background:new 0 0 975.263 975.264;"
	 xml:space="preserve">
<g>
	<path d="M667.963,311.132c-84.7,0-164.601-11.2-225.1-31.5c-40.1-13.5-65.8-28.9-82-44.3v269.501c4.2-7.4,9.4-13.701,15.7-19
		c17.8-14.801,39.3-16.801,58.1-16.801c5.7,0,11.4,0.2,16.9,0.4s11.2,0.4,16.7,0.4c7.2,0,13.1-0.301,18.399-1.101
		c1.601-0.2,3.2-0.3,4.8-0.3c14.399,0,27.3,8.7,32.699,22c4.2,10.4,10.4,20.299,16.9,30.799c10.1,16.301,20.6,33.201,23.3,52.9
		c3.4,24.801-6.6,47.301-29.5,67c-0.5,0.4-1,0.801-1.5,1.301c-0.3,0.299-0.6,0.5-1,0.799c0.3,0,0.601-0.1,0.9-0.1
		c5.399-0.799,10.7-1.1,15.6-1.1c24.8,0,44.4,9.5,58,28.1c10.4,14.201,15.5,31.301,20.5,47.701c3.601,11.898,6.9,23.1,11.9,33.1
		c7.2,14.4,3.7,31.9-8.5,42.4c-0.4,0.398-0.8,0.799-1.3,1.1c12.6,0.5,25.5,0.799,38.6,0.799c169.6,0,307.1-46.1,307.1-103v-72.1
		c-57.399,70.6-201.8,80.701-265.399,81.701c-17,0.199-30.9-13.5-30.9-30.5V430.632c0-16.2,12.601-29.601,28.8-30.5
		c64.7-3.601,219.7-17.9,267.601-72.1v-92.8c-16.101,15.4-41.9,30.8-82,44.3C832.563,299.932,752.563,311.132,667.963,311.132z"/>
	<path d="M667.963,3.032c-152.9,0-279.7,37.5-303.2,86.6c3.2,23.3,34.1,47.9,84.1,66.7c41.5,15.6,92.5,26.2,147.799,31.1
		c23.101,2,46.9,3.1,71.2,3.1s48.101-1.1,71.2-3.1c55.4-4.9,106.3-15.5,147.8-31.1c50-18.8,81-43.4,84.101-66.7
		C947.663,40.532,820.863,3.032,667.963,3.032z"/>
	<path d="M895.763,179.832c-7.2,2.7-14.7,5.3-22.5,7.7c-58.101,18.2-130,28.1-205.3,28.1c-75.301,0-147.2-9.9-205.3-28.1
		c-7.699-2.4-15.3-5-22.5-7.7c-35.5-13.3-62.3-29.4-79.3-47.1v50.4c0,1.5,0.101,3,0.3,4.4c6.9,54.9,141.6,98.6,306.8,98.6
		c165.199,0,299.899-43.8,306.8-98.6c0.2-1.5,0.3-2.9,0.3-4.4v-50.4C958.063,150.432,931.263,166.432,895.763,179.832z"/>
	<path d="M155.664,484.432c12,6.2,26.7,1.4,32.9-10.6s1.4-26.7-10.6-32.9s-26.7-1.4-32.9,10.6
		C138.963,463.532,143.664,478.232,155.664,484.432z"/>
	<path d="M49.463,486.833c10.7-0.5,54.5-5.7,73.5-17.301c1.8-1.1,3-2.6,3.7-4.6c1.5-4.4-0.7-9.2-5.1-10.9l-56.2-21.6
		c-0.1,0-0.4-0.2-0.3-0.6c0.1-0.4,0.4-0.301,0.5-0.301l58.7,13c4.3,1,8.7-1.5,10.1-5.699l0,0c0.7-2.101,0.6-4.301-0.4-6.4
		c-9.4-20.1-43-48.8-51.6-55.1c-26.7-19.5-42.4-3.7-59.1,13.1c-6.3,6.3-12.8,12.8-20.3,18.1c-1.2,0.9-2.1,2.101-2.6,3.5
		c-0.5,1.601-0.5,3.301,0.1,4.801c3.3,8.6,5.1,17.6,6.9,26.3C12.063,466.333,16.463,488.231,49.463,486.833z"/>
	<path d="M146.764,584.433c0.1-0.301,0.2-0.6,0.3-1c1.6-4.701,5.4-17.701,8.4-33c2.4-12.201,4.8-29.1,2.9-40.6
		c-0.5-3.301-2.8-5.9-6-6.9c-3.2-1-6.6-0.1-8.9,2.4l-41.1,43.799c-0.1,0.1-0.3,0.301-0.5,0.1c0,0-0.3-0.199-0.3-0.5
		c0-0.1,0-0.1,0.1-0.199l34.2-49.4c0.5-0.699,0.8-1.4,1.1-2.199c0.9-2.701,0.4-5.701-1.3-8c-1.7-2.3-4.4-3.5-7.3-3.401
		c-22.2,1.101-61.4,21.401-70.5,27.1c-9.4,5.801-15.2,12.201-17.7,19.6c-4.2,12.4,1.5,25.801,7.5,40
		c3.5,8.201,7.1,16.602,9.2,25.602c0.7,3.1,3.5,5.398,6.7,5.398c9.2,0.201,18.2,1.9,26.9,3.602
		C113.764,611.333,135.664,615.532,146.764,584.433z"/>
	<path d="M272.264,427.932l-54.7,25c-2.2,1-3.8,2.8-4.6,5.1c-1.4,4.101,0.4,8.5,4.1,10.4c19.6,10.4,63.7,13,74.4,12.8
		c18.8-0.3,29.5-7.3,34.7-22.7c2.301-6.899,3.4-14.899,4.601-23.3c1.2-8.8,2.5-17.899,5.2-26.7c1-3.1-0.301-6.399-3-8.1
		c-7.801-4.8-14.7-10.9-21.301-16.9c-17.7-15.7-34.299-30.5-59.799-9.5c-8.3,6.8-40.1,37.4-48.2,58.1c-1.2,3.2-0.5,6.7,1.8,9.1
		c2.2,2.3,5.6,3.3,8.7,2.4l57.8-16.601c0.3-0.1,0.4,0,0.4,0.101c0.1,0.1,0.2,0.399,0.1,0.5
		C272.563,427.732,272.463,427.833,272.264,427.932z"/>
	<path d="M193.764,301.832c-7.9-4-16.2-8.1-23.6-13.5c-2.6-1.9-6.2-1.8-8.7,0.2c-7.1,5.8-15.1,10.4-22.8,14.8
		c-13.4,7.6-26.1,14.8-30.3,27.3c-2.5,7.4-1.8,16,2.1,26.3c3.8,10,22.6,50,39.5,64.3c2.2,1.9,5.1,2.5,7.9,1.7c2.8-0.8,5-2.9,5.9-5.6
		c0.3-0.801,0.4-1.601,0.5-2.4l2.9-60c0-0.1,0-0.1,0-0.2c0.1-0.3,0.5-0.2,0.5-0.2c0.3,0,0.3,0.2,0.4,0.4l6.1,59.8
		c0.3,3.3,2.5,6.101,5.6,7.3c3.1,1.2,6.5,0.5,8.9-1.8c8.5-8,16.9-22.899,22.4-34.1c6.9-13.9,11.8-26.6,13.4-31.3
		c0.1-0.4,0.2-0.7,0.3-1C234.863,322.332,214.863,312.332,193.764,301.832z"/>
	<path d="M261.963,597.231c0.2-0.1,0.3-0.199,0.4-0.199c0.2,0,0.3,0.1,0.4,0.199l62.5,60.801c2.399,2.4,5.6,3.6,8.8,3.6
		c2.9,0,5.7-1,8.1-2.9l0,0c2.5-2,4-4.898,4.4-8.1c3.7-32-16-92.9-21.9-107.299c-11.199-27.301-27.399-34.9-45.899-34.9
		c-11.6,0-24.2,3-37,6.1c-12.5,3-25.5,6.1-38.8,7c-2.2,0.1-4.2,0.9-5.9,2.301c-1.8,1.5-3.1,3.699-3.5,6
		c-2.4,13.1-7.1,25.6-11.5,37.699c-11.9,32.1-23.1,62.5,18.7,85.801c13.6,7.6,71.7,34.398,103.899,34.5c0,0,0,0,0.101,0
		c3,0,5.7-1,7.899-2.801c5.2-4.301,6.101-12,2-17.4l-52.8-69.4C261.664,597.933,261.463,597.632,261.963,597.231z"/>
	<path d="M397.964,777.833c-2.4-2.102-5.301-3.102-8.2-3.102c-2.9,0-5.7,1-8.101,2.9c-2.699,2.201-4.3,5.4-4.5,8.9l-5.399,87
		c0,0.301-0.101,0.4-0.2,0.5s-0.3,0.1-0.5,0.1c-0.1,0-0.2,0-0.3-0.1c-0.101-0.1-0.3-0.1-0.3-0.5l-7.601-86.9
		c-0.399-4.699-3.399-8.699-7.7-10.5c-1.6-0.699-3.199-1-4.899-1c-3,0-6,1.1-8.4,3.301c-23.8,21.799-48.7,80.699-53.7,95.5
		c-15.3,45.4,13.5,60.299,43.9,76.1c11.4,5.9,23.3,12.1,33.9,20.1c1.8,1.4,4,2.1,6.199,2.1c2.301,0,4.5-0.699,6.4-2.199
		c10.4-8.301,22.1-14.699,33.4-21c10.8-5.9,21-11.6,29.199-18.301l0,0c18.101-15.1,22.101-33.199,12.801-58.799
		C448.663,857.333,422.163,799.032,397.964,777.833z"/>
	<path d="M315.563,751.433c-2.4-2.801-5.9-4.301-9.4-4.301c-1.1,0-2.199,0.1-3.3,0.4l-84.2,22.9c-0.1,0-0.2,0-0.3,0
		c-0.2,0-0.3-0.1-0.5-0.301c0,0-0.3-0.5,0.1-0.799c0.1-0.102,0.1-0.102,0.2-0.102l79.8-35.1c1.1-0.5,2.1-1.1,3-1.9
		c3.199-2.6,4.8-6.699,4.399-10.898c-0.399-4.201-2.7-7.701-6.399-9.701c-28.101-15.4-91.4-20.199-107.4-20.199c-0.1,0-0.2,0-0.3,0
		c-16,0-28,3.6-36.8,10.799c-14.6,12.102-17.8,33-21.2,55.201c-1.9,12.699-3.9,25.9-8.2,38.6c-1.5,4.4,0.2,9.301,4.2,11.9
		c11.2,7.199,21.1,16.199,30.6,24.9c16.5,15.1,32.3,29.6,51.7,29.6c10.4,0,21.8-4.201,34.8-14.6c0.4-0.301,0.8-0.602,1.2-1
		c5.6-4.602,20.1-17.701,35.4-34.301c12.2-13.199,28.1-32.301,34.5-48C319.663,760.032,318.764,755.032,315.563,751.433z"/>
	<path d="M409.663,659.032c-2.1,4.4-1.6,9.4,1.4,13.199c2.4,3.102,6,4.801,9.8,4.801c0.8,0,1.7-0.1,2.601-0.301
		c16.6-3.398,38.3-15.5,53.5-25.1c19.099-12,34.699-23.9,40.299-28.5c0.399-0.4,0.8-0.699,1.2-1
		c36.399-31.199,19.3-58.699,1.3-87.799c-6.8-11-13.8-22.301-18.8-34.602c-1.601-3.898-5.4-6.398-9.5-6.398c-0.5,0-0.9,0-1.4,0.1
		c-7.299,1-14.599,1.299-21.799,1.299c-5.9,0-11.8-0.199-17.601-0.398c-5.399-0.201-10.8-0.4-16-0.4c-16.199,0-31,1.799-42.1,11
		c-8.7,7.199-14.4,18.4-17.4,34.1c-2.899,15.301-10.1,78.9-0.1,109.5c1.3,4,4.4,7,8.4,8.1c1.199,0.301,2.399,0.5,3.6,0.5
		c2.9,0,5.7-1,8-2.9c0.9-0.799,1.7-1.6,2.4-2.6l49.199-72c0.101-0.1,0.101-0.199,0.2-0.199c0.101-0.1,0.2-0.1,0.3-0.1
		c0.301,0,0.5,0.199,0.5,0.199c0.4,0.301,0.301,0.5,0.101,0.801L409.663,659.032z"/>
	<path d="M603.263,725.231c-9-29.799-17.5-58.1-54.5-58.1c-3.7,0-7.8,0.301-12.101,0.9c-15.399,2.1-78,15.801-103.799,35.1
		c-4,3-5.7,7.801-4.7,12.6c1,4.602,4.4,8.301,8.9,9.5l84,23.5c0.4,0.102,0.4,0.301,0.5,0.4c0.1,0.301,0,0.6-0.2,0.801
		c0,0-0.1,0.1-0.3,0.1c0,0-0.1,0-0.2,0l-86.5-10.801c-0.5-0.1-1.1-0.1-1.6-0.1c-2.9,0-5.7,1-8,2.9c-3.4,2.801-5,7.1-4.5,11.301
		c0.2,1.6,0.7,3.299,1.6,4.799c16.3,27.801,68.799,64.5,82.1,72.5c11.3,6.701,21.399,10,30.899,10c10.3,0,19.8-3.9,29.2-11.699
		c8.2-6.801,15.6-15.801,23.4-25.301c3-3.6,6-7.299,9.1-10.9c5.5-6.299,11.2-12.5,17.7-18.1c3.6-3.1,4.6-8.1,2.5-12.299
		C610.763,750.333,606.963,737.532,603.263,725.231z"/>
	<path d="M360.863,677.433c-5.2,0.5-10.399,2.1-15.2,5c-16.8,10.1-22.1,31.9-12,48.699c6.7,11,18.4,17.1,30.301,17.1
		c6.3,0,12.6-1.699,18.3-5.1c3-1.799,5.7-4.1,7.899-6.6c10.2-11.301,12.301-28.4,4-42.1c-6.699-11-18.3-17.1-30.3-17.1
		C363.063,677.231,361.964,677.333,360.863,677.433z"/>
</g>
<g>
</g>
<g>
</g>
<g>
</g>
<g>
</g>
<g>
</g>
<g>
</g>
<g>
</g>
<g>
</g>
<g>
</g>
<g>
</g>
<g>
</g>
<g>
</g>
<g>
</g>
<g>
</g>
<g>
</g>
</svg>
